<?xml version="1.0" encoding="UTF-8"?>
<svg xmlns="http://www.w3.org/2000/svg" xmlns:xlink="http://www.w3.org/1999/xlink" width="1280" height="720" viewBox="0 0 1280 720">
<defs>
<g>
<g id="glyph-0-0">
<path d="M 4.277344 -4.386719 C 4.242188 -4.386719 4.183594 -4.371094 4.101562 -4.34375 C 4.019531 -4.316406 3.964844 -4.289062 3.929688 -4.265625 C 3.84375 -4.210938 3.785156 -4.171875 3.757812 -4.144531 C 3.726562 -4.117188 3.667969 -4.042969 3.582031 -3.921875 C 3.410156 -3.683594 3.253906 -3.441406 3.113281 -3.195312 C 2.96875 -2.953125 2.789062 -2.640625 2.574219 -2.261719 C 2.496094 -2.125 2.441406 -2.011719 2.414062 -1.925781 C 2.390625 -1.84375 2.375 -1.71875 2.375 -1.558594 L 2.375 -0.675781 C 2.375 -0.597656 2.390625 -0.53125 2.421875 -0.472656 C 2.453125 -0.417969 2.507812 -0.371094 2.585938 -0.335938 C 2.628906 -0.316406 2.710938 -0.296875 2.828125 -0.273438 C 2.945312 -0.246094 3.039062 -0.234375 3.113281 -0.230469 L 3.113281 0 L 0.949219 0 L 0.949219 -0.230469 C 1.011719 -0.234375 1.101562 -0.242188 1.222656 -0.253906 C 1.34375 -0.265625 1.429688 -0.28125 1.476562 -0.304688 C 1.554688 -0.335938 1.609375 -0.378906 1.640625 -0.4375 C 1.667969 -0.492188 1.683594 -0.5625 1.683594 -0.644531 L 1.683594 -1.765625 C 1.683594 -1.800781 1.660156 -1.867188 1.621094 -1.957031 C 1.578125 -2.050781 1.527344 -2.152344 1.46875 -2.265625 C 1.335938 -2.515625 1.195312 -2.789062 1.035156 -3.082031 C 0.875 -3.375 0.738281 -3.625 0.621094 -3.835938 C 0.550781 -3.957031 0.488281 -4.050781 0.429688 -4.113281 C 0.375 -4.175781 0.3125 -4.234375 0.242188 -4.28125 C 0.1875 -4.3125 0.125 -4.339844 0.0546875 -4.355469 C -0.0195312 -4.371094 -0.0859375 -4.382812 -0.144531 -4.386719 L -0.144531 -4.617188 L 1.828125 -4.617188 L 1.828125 -4.386719 C 1.605469 -4.382812 1.449219 -4.367188 1.359375 -4.34375 C 1.269531 -4.316406 1.222656 -4.28125 1.222656 -4.230469 C 1.222656 -4.21875 1.230469 -4.195312 1.242188 -4.164062 C 1.253906 -4.132812 1.273438 -4.089844 1.296875 -4.039062 C 1.324219 -3.984375 1.359375 -3.917969 1.398438 -3.847656 C 1.4375 -3.773438 1.472656 -3.703125 1.507812 -3.636719 C 1.609375 -3.445312 1.714844 -3.25 1.820312 -3.058594 C 1.925781 -2.867188 2.066406 -2.617188 2.234375 -2.308594 C 2.578125 -2.859375 2.835938 -3.285156 3.015625 -3.59375 C 3.195312 -3.898438 3.285156 -4.082031 3.285156 -4.144531 C 3.285156 -4.195312 3.265625 -4.234375 3.226562 -4.265625 C 3.191406 -4.292969 3.140625 -4.320312 3.082031 -4.335938 C 3.019531 -4.351562 2.949219 -4.363281 2.875 -4.371094 C 2.800781 -4.375 2.734375 -4.382812 2.671875 -4.386719 L 2.671875 -4.617188 L 4.277344 -4.617188 Z "/>
</g>
<g id="glyph-0-1">
<path d="M 3.367188 -1.636719 C 3.367188 -1.410156 3.328125 -1.191406 3.257812 -0.972656 C 3.1875 -0.753906 3.085938 -0.570312 2.953125 -0.417969 C 2.800781 -0.242188 2.628906 -0.113281 2.429688 -0.0273438 C 2.234375 0.0546875 2.011719 0.0976562 1.765625 0.0976562 C 1.5625 0.0976562 1.367188 0.0585938 1.183594 -0.0195312 C 0.996094 -0.09375 0.832031 -0.207031 0.691406 -0.355469 C 0.550781 -0.5 0.4375 -0.675781 0.351562 -0.886719 C 0.269531 -1.097656 0.226562 -1.332031 0.226562 -1.589844 C 0.226562 -2.09375 0.375 -2.503906 0.667969 -2.820312 C 0.957031 -3.140625 1.339844 -3.300781 1.816406 -3.300781 C 2.265625 -3.300781 2.636719 -3.148438 2.925781 -2.847656 C 3.21875 -2.542969 3.367188 -2.140625 3.367188 -1.636719 M 2.691406 -1.628906 C 2.691406 -1.792969 2.675781 -1.964844 2.644531 -2.148438 C 2.609375 -2.328125 2.5625 -2.480469 2.496094 -2.605469 C 2.425781 -2.742188 2.335938 -2.851562 2.222656 -2.929688 C 2.109375 -3.011719 1.972656 -3.054688 1.808594 -3.054688 C 1.640625 -3.054688 1.496094 -3.011719 1.378906 -2.929688 C 1.261719 -2.847656 1.164062 -2.734375 1.089844 -2.589844 C 1.019531 -2.457031 0.972656 -2.308594 0.945312 -2.140625 C 0.914062 -1.96875 0.902344 -1.804688 0.902344 -1.648438 C 0.902344 -1.4375 0.917969 -1.246094 0.953125 -1.070312 C 0.984375 -0.890625 1.039062 -0.734375 1.113281 -0.59375 C 1.1875 -0.457031 1.28125 -0.347656 1.390625 -0.269531 C 1.503906 -0.1875 1.644531 -0.148438 1.808594 -0.148438 C 2.078125 -0.148438 2.296875 -0.28125 2.453125 -0.542969 C 2.613281 -0.804688 2.691406 -1.167969 2.691406 -1.628906 Z "/>
</g>
<g id="glyph-0-2">
<path d="M 3.675781 -0.0585938 L 2.628906 0.0117188 L 2.578125 -0.03125 L 2.578125 -0.4375 L 2.558594 -0.4375 C 2.507812 -0.386719 2.449219 -0.328125 2.382812 -0.265625 C 2.316406 -0.203125 2.242188 -0.148438 2.160156 -0.0976562 C 2.0625 -0.0390625 1.96875 0.00390625 1.875 0.0351562 C 1.785156 0.0664062 1.65625 0.0820312 1.488281 0.0820312 C 1.207031 0.0820312 0.988281 -0.0117188 0.839844 -0.195312 C 0.691406 -0.382812 0.617188 -0.652344 0.617188 -1.003906 L 0.617188 -2.539062 C 0.617188 -2.617188 0.605469 -2.683594 0.574219 -2.734375 C 0.542969 -2.789062 0.5 -2.835938 0.445312 -2.875 C 0.40625 -2.902344 0.355469 -2.917969 0.296875 -2.929688 C 0.238281 -2.941406 0.175781 -2.953125 0.109375 -2.957031 L 0.109375 -3.171875 L 1.179688 -3.25 L 1.230469 -3.203125 L 1.230469 -0.972656 C 1.230469 -0.742188 1.28125 -0.566406 1.386719 -0.449219 C 1.492188 -0.332031 1.617188 -0.273438 1.761719 -0.273438 C 1.878906 -0.273438 1.988281 -0.292969 2.078125 -0.328125 C 2.171875 -0.367188 2.25 -0.410156 2.3125 -0.457031 C 2.375 -0.503906 2.425781 -0.550781 2.46875 -0.601562 C 2.511719 -0.65625 2.546875 -0.703125 2.570312 -0.746094 L 2.570312 -2.5625 C 2.570312 -2.632812 2.554688 -2.695312 2.527344 -2.753906 C 2.496094 -2.808594 2.453125 -2.855469 2.398438 -2.894531 C 2.359375 -2.921875 2.300781 -2.9375 2.226562 -2.941406 C 2.148438 -2.945312 2.0625 -2.953125 1.964844 -2.957031 L 1.964844 -3.171875 L 3.132812 -3.25 L 3.183594 -3.203125 L 3.183594 -0.65625 C 3.183594 -0.582031 3.199219 -0.519531 3.230469 -0.46875 C 3.257812 -0.417969 3.300781 -0.371094 3.355469 -0.335938 C 3.394531 -0.3125 3.441406 -0.296875 3.496094 -0.289062 C 3.550781 -0.28125 3.609375 -0.277344 3.675781 -0.273438 Z "/>
</g>
</g>
</defs>
<g fill="rgb(100%, 100%, 100%)" fill-opacity="1">
<use xlink:href="#glyph-0-0" x="30" y="26.112305"/>
<use xlink:href="#glyph-0-1" x="34" y="26.112305"/>
<use xlink:href="#glyph-0-2" x="38" y="26.112305"/>
</g>
</svg>
